<svg width="14" height="12" viewBox="0 0 14 12" fill="none" xmlns="http://www.w3.org/2000/svg">
<path d="M12.3117 3.53851V3.91274C12.3117 7.68129 9.55854 12 4.5207 12C3.03347 12.0033 1.57783 11.5545 0.333313 10.7089C0.549449 10.7393 0.767466 10.7531 0.985565 10.75C2.21836 10.7535 3.41649 10.3265 4.38737 9.5375C3.81464 9.52874 3.25914 9.33272 2.79982 8.97732C2.3405 8.62192 2.00074 8.12522 1.82881 7.5578C1.99941 7.59536 2.17334 7.61417 2.34773 7.61393C2.59125 7.61399 2.83366 7.58 3.06845 7.51289C2.44812 7.38446 1.89004 7.03616 1.48971 6.52757C1.08938 6.01898 0.871675 5.38172 0.873854 4.72483V4.68741C1.25339 4.90758 1.67889 5.02833 2.11349 5.03919C1.53497 4.64384 1.12365 4.03399 0.963572 3.33425C0.803496 2.63452 0.906749 1.89771 1.25223 1.27438C1.94061 2.15365 2.79947 2.87262 3.77297 3.38455C4.74647 3.89649 5.81281 4.18994 6.90268 4.24581C6.84873 4.0334 6.82327 3.81428 6.82701 3.59464C6.80672 3.01417 6.95919 2.4413 7.26366 1.95405C7.56813 1.4668 8.00981 1.08884 8.52855 0.871637C9.0473 0.654432 9.6179 0.608538 10.1627 0.740204C10.7074 0.87187 11.1999 1.1747 11.573 1.60745C12.1862 1.47893 12.7745 1.24493 13.3135 0.915116C13.1091 1.58551 12.6742 2.15432 12.0919 2.5131C12.6359 2.43526 13.1662 2.27645 13.6666 2.04156C13.304 2.62 12.8452 3.12687 12.3117 3.53851Z" fill="#110A1D"/>
</svg>
