<svg width="101" height="101" viewBox="0 0 101 101" fill="none" xmlns="http://www.w3.org/2000/svg">
<path d="M14.8282 85.4518C-4.66149 65.9621 -4.66149 34.2533 14.8282 14.7636C34.318 -4.72613 66.0266 -4.72613 85.5164 14.7636C105.006 34.2533 105.006 65.9621 85.5164 85.4518C66.0266 104.941 34.318 104.941 14.8282 85.4518ZM83.1607 17.1192C64.9697 -1.07181 35.3749 -1.07181 17.1886 17.1192C-1.00244 35.3103 -1.00244 64.9051 17.1886 83.0914C35.3796 101.282 64.9744 101.282 83.1607 83.0914C101.352 64.9004 101.352 35.3055 83.1607 17.1192Z" fill="white"/>
<path d="M83.7002 39.505C83.5248 39.3297 83.3827 39.1069 83.3021 38.8604C81.5721 33.7415 78.7472 29.2056 74.908 25.3664C71.0736 21.532 66.5329 18.7071 61.414 16.9724C60.7363 16.7402 60.2812 16.1098 60.2812 15.3941V3.24618C60.2812 2.7343 60.5182 2.25083 60.9211 1.93327C61.3287 1.61571 61.8548 1.50671 62.3478 1.62994C71.0973 3.81969 79.1074 8.36033 85.506 14.7637C91.9046 21.1671 96.4453 29.1724 98.6351 37.922C98.7583 38.4196 98.6446 38.9457 98.3317 39.3534C98.0142 39.761 97.5307 39.9932 97.0188 39.9932H84.8709C84.4159 39.9932 83.9988 39.8084 83.6907 39.5003L83.7002 39.505ZM77.2636 23.0108C81.1786 26.9258 84.1315 31.5139 86.0558 36.6612H94.8433C92.6346 29.3052 88.62 22.5842 83.1551 17.1193C77.6902 11.6544 70.9693 7.6399 63.618 5.43593V14.2234C68.7654 16.143 73.3534 19.0958 77.2684 23.0155L77.2636 23.0108Z" fill="white"/>
<path d="M14.8271 85.4518C8.42843 79.0532 3.88303 71.043 1.69328 62.2935C1.57005 61.7959 1.68381 61.2697 1.99663 60.8669C2.31419 60.4593 2.79762 60.227 3.30951 60.227H15.4574C16.1731 60.227 16.8082 60.682 17.0357 61.3598C18.7657 66.4787 21.5906 71.0146 25.4298 74.8538C29.2642 78.6882 33.8049 81.5131 38.9238 83.2478C39.6016 83.4753 40.0565 84.1104 40.0565 84.8261V96.974C40.0565 97.4859 39.8196 97.9694 39.4167 98.287C39.0091 98.6045 38.483 98.7135 37.9853 98.5903C29.2358 96.4005 21.2304 91.8599 14.8271 85.4613V85.4518ZM5.49454 63.5543C7.70325 70.9103 11.7178 77.6312 17.1827 83.0961C22.6476 88.561 29.3685 92.5756 36.7246 94.7843V85.9968C31.5772 84.0773 26.9892 81.1244 23.0741 77.2094C19.1591 73.2944 16.2063 68.7064 14.282 63.559H5.49454V63.5543Z" fill="white"/>
<path d="M60.7773 98.1448C60.4644 97.832 60.2891 97.4101 60.2891 96.9646V84.8167C60.2891 84.101 60.7441 83.4659 61.4219 83.2384C66.5408 81.5084 71.0767 78.6835 74.9158 74.8444C78.755 71.0052 81.5751 66.4693 83.3098 61.3504C83.5374 60.6726 84.1725 60.2176 84.8882 60.2176H97.0361C97.548 60.2176 98.0315 60.4546 98.349 60.8574C98.6666 61.2603 98.7756 61.7912 98.6524 62.2841C96.4579 71.0336 91.9172 79.039 85.5186 85.4424C79.12 91.8457 71.1098 96.3864 62.3603 98.5761C61.8626 98.6994 61.3365 98.5856 60.9337 98.2728C60.8815 98.2254 60.8294 98.1827 60.782 98.1353L60.7773 98.1448ZM63.6211 85.9922V94.7796C70.9771 92.5709 77.6981 88.5564 83.1629 83.0915C88.6278 77.6266 92.6377 70.9056 94.8511 63.5496H86.0637C84.1441 68.6969 81.1912 73.2802 77.2715 77.2C73.3564 81.115 68.7684 84.0726 63.6211 85.9922Z" fill="white"/>
<path d="M2.13007 39.5051C2.08267 39.4577 2.03529 39.4056 1.99737 39.3534C1.67981 38.9506 1.57079 38.4197 1.69402 37.922C3.88377 29.1725 8.42443 21.1624 14.8278 14.7638C21.2312 8.36515 29.2365 3.81977 37.986 1.63002C38.4837 1.50679 39.0098 1.62053 39.4127 1.93335C39.8156 2.25091 40.0526 2.73437 40.0526 3.24626V15.3942C40.0526 16.1099 39.5976 16.745 38.9198 16.9725C33.8009 18.7025 29.2649 21.5274 25.4258 25.3665C21.5913 29.201 18.7665 33.7416 17.0317 38.8605C16.8042 39.5383 16.1691 39.9933 15.4534 39.9933H3.30554C2.86001 39.9933 2.43341 39.8179 2.12533 39.5099L2.13007 39.5051ZM36.7206 5.43601C29.3645 7.64472 22.6436 11.6593 17.1787 17.1242C11.7138 22.5891 7.70399 29.31 5.49054 36.666H14.278C16.1976 31.5187 19.1504 26.9354 23.0701 23.0156C26.9852 19.1006 31.5732 16.1478 36.7206 14.2235V5.43601Z" fill="white"/>
<path d="M77.2676 23.0107C62.328 8.07108 38.0133 8.06634 23.0737 23.0107C8.12933 37.955 8.13407 62.265 23.0737 77.2046C38.0133 92.1442 62.3232 92.1489 77.2676 77.2046C92.2119 62.2603 92.2072 37.9503 77.2676 23.0107Z" fill="white"/>
<path d="M63.9943 63.7852L36.4666 63.9678C35.307 63.9755 34.3732 64.9217 34.3809 66.0813L34.3874 67.0624C34.3951 68.222 35.3414 69.1558 36.501 69.1482L64.0286 68.9656C65.1882 68.9579 66.1221 68.0116 66.1144 66.852L66.1079 65.8709C66.1002 64.7113 65.1539 63.7775 63.9943 63.7852Z" fill="#110A1D"/>
<path d="M40.2172 47.1689C39.9186 47.1689 39.6152 47.1026 39.3403 46.9699L37.1932 45.9319C36.2595 45.4769 35.8329 44.3725 36.2216 43.4104L37.2075 40.9552C37.5108 40.2063 38.2265 39.7181 39.0323 39.7134C39.3783 39.7134 39.7195 39.7987 40.0228 39.9741L42.5823 41.4339C43.061 41.7041 43.407 42.1733 43.5302 42.7136C43.6535 43.2539 43.5445 43.8227 43.2316 44.2777L41.8287 46.3111C41.4637 46.8419 40.857 47.1642 40.2124 47.1642L40.2172 47.1689Z" fill="#110A1D"/>
<path d="M60.032 47.0363C59.3874 47.0363 58.776 46.7283 58.4063 46.2022L57.0176 44.2447C56.6953 43.7944 56.5816 43.2256 56.6953 42.6853C56.8091 42.145 57.1503 41.671 57.629 41.3913L60.269 39.8415C60.5676 39.6661 60.9089 39.5713 61.2549 39.5666C62.0607 39.5618 62.7859 40.0405 63.0987 40.7847L64.094 43.1687C64.4921 44.1262 64.0798 45.24 63.1555 45.7045L60.9089 46.8278C60.6388 46.9605 60.3354 47.0363 60.0368 47.0363H60.032Z" fill="#110A1D"/>
<path d="M38.0546 62.1275C36.846 62.137 35.7606 61.3787 35.3482 60.2411L30.7555 47.6003C30.4616 47.7425 30.1488 47.8515 29.8312 47.9321C29.4568 48.0269 29.0776 48.0743 28.6937 48.0743C28.4709 48.0743 28.2529 48.0648 28.0396 48.0363C25.646 47.733 23.8307 45.6807 23.8165 43.2634C23.7976 40.5902 25.9588 38.4005 28.632 38.3815C31.3052 38.3626 33.495 40.5239 33.5092 43.1971C33.5092 43.8133 33.4049 44.4057 33.1869 44.9603C33.0684 45.2636 32.9215 45.5527 32.7509 45.8276L41.4862 50.0555L48.1692 40.3722C47.8896 40.2537 47.6194 40.1068 47.3634 39.9314C46.88 39.6044 46.4581 39.1968 46.1169 38.7181C45.5386 37.9028 45.2258 36.9407 45.2211 35.9453C45.2021 33.2721 47.3634 31.0824 50.0366 31.0634C50.1551 31.0634 50.2784 31.0634 50.3969 31.0729C52.7904 31.234 54.7242 33.1536 54.8996 35.5472C54.9802 36.68 54.6816 37.7654 54.037 38.6896C53.6957 39.1731 53.2786 39.5854 52.7999 39.9125C52.5487 40.0878 52.2785 40.2348 51.9989 40.3533L58.8004 49.937L67.3935 45.638C67.2323 45.33 67.1044 45.0077 67.0096 44.6711C66.8958 44.2635 66.8342 43.8369 66.8342 43.4056C66.8342 43.2113 66.8437 43.017 66.8626 42.8274C67.1375 40.3912 69.1946 38.5427 71.645 38.5285C74.3182 38.5095 76.508 40.6708 76.5222 43.344C76.5411 45.894 74.5599 48.0363 72.0147 48.2117L71.7114 48.2212C71.2184 48.2212 70.735 48.1548 70.2658 48.0126C69.9624 47.9178 69.6685 47.7994 69.3936 47.6477L65.0805 60.0421C64.6871 61.1843 63.6064 61.9522 62.3978 61.9616L38.0546 62.1228V62.1275Z" fill="#110A1D"/>
</svg>
