<svg width="101" height="222" viewBox="0 0 101 222" fill="none" xmlns="http://www.w3.org/2000/svg">
<path d="M15.4881 207.26C-4.00158 187.77 -4.00158 156.061 15.4881 136.572C34.9779 117.082 66.6866 117.082 86.1763 136.572C105.666 156.061 105.666 187.77 86.1763 207.26C66.6866 226.749 34.9779 226.749 15.4881 207.26ZM83.8207 138.927C65.6296 120.736 36.0348 120.736 17.8485 138.927C-0.342528 157.118 -0.342528 186.713 17.8485 204.899C36.0396 223.09 65.6344 223.09 83.8207 204.899C102.012 186.708 102.012 157.114 83.8207 138.927Z" fill="white"/>
<path d="M84.3638 161.313C84.1884 161.138 84.0462 160.915 83.9657 160.668C82.2357 155.55 79.4108 151.014 75.5716 147.174C71.7372 143.34 67.1965 140.515 62.0776 138.78C61.3998 138.548 60.9448 137.918 60.9448 137.202V125.054C60.9448 124.542 61.1818 124.059 61.5847 123.741C61.9923 123.424 62.5184 123.315 63.0113 123.438C71.7609 125.628 79.771 130.168 86.1696 136.572C92.5682 142.975 97.1089 150.98 99.2987 159.73C99.4219 160.228 99.3081 160.754 98.9953 161.161C98.6777 161.569 98.1943 161.801 97.6824 161.801H85.5345C85.0795 161.801 84.6624 161.616 84.3543 161.308L84.3638 161.313ZM77.9272 144.819C81.8422 148.734 84.7951 153.322 86.7194 158.469H95.5069C93.2982 151.113 89.2836 144.392 83.8187 138.927C78.3538 133.462 71.6329 129.448 64.2816 127.244V136.031C69.4289 137.951 74.017 140.904 77.932 144.824L77.9272 144.819Z" fill="white"/>
<path d="M15.4867 207.26C9.0881 200.861 4.5427 192.851 2.35295 184.102C2.22971 183.604 2.34347 183.078 2.6563 182.675C2.97386 182.267 3.45729 182.035 3.96918 182.035H16.1171C16.8328 182.035 17.4679 182.49 17.6954 183.168C19.4254 188.287 22.2503 192.823 26.0894 196.662C29.9239 200.496 34.4646 203.321 39.5835 205.056C40.2612 205.283 40.7162 205.918 40.7162 206.634V218.782C40.7162 219.294 40.4792 219.777 40.0764 220.095C39.6687 220.413 39.1426 220.522 38.645 220.398C29.8954 218.209 21.8901 213.668 15.4867 207.269V207.26ZM6.15421 185.362C8.36292 192.718 12.3774 199.439 17.8423 204.904C23.3072 210.369 30.0282 214.384 37.3842 216.592V207.805C32.2369 205.885 27.6488 202.932 23.7338 199.017C19.8188 195.102 16.866 190.514 14.9416 185.367H6.15421V185.362Z" fill="white"/>
<path d="M61.433 219.953C61.1202 219.64 60.9448 219.218 60.9448 218.773V206.625C60.9448 205.909 61.3998 205.274 62.0776 205.046C67.1965 203.316 71.7324 200.492 75.5716 196.652C79.4108 192.813 82.2309 188.277 83.9656 183.158C84.1931 182.481 84.8283 182.026 85.544 182.026H97.6919C98.2038 182.026 98.6872 182.263 99.0048 182.665C99.3223 183.068 99.4314 183.599 99.3081 184.092C97.1136 192.842 92.573 200.847 86.1743 207.25C79.7757 213.654 71.7656 218.194 63.0161 220.384C62.5184 220.507 61.9923 220.394 61.5894 220.081C61.5373 220.033 61.4852 219.991 61.4378 219.943L61.433 219.953ZM64.2769 207.8V216.588C71.6329 214.379 78.3538 210.364 83.8187 204.9C89.2836 199.435 93.2934 192.714 95.5069 185.358H86.7194C84.7998 190.505 81.847 195.088 77.9272 199.008C74.0122 202.923 69.4242 205.881 64.2769 207.8Z" fill="white"/>
<path d="M2.78974 161.313C2.74234 161.266 2.69496 161.214 2.65704 161.161C2.33948 160.759 2.23046 160.228 2.35369 159.73C4.54344 150.981 9.0841 142.97 15.4875 136.572C21.8908 130.173 29.8962 125.628 38.6457 123.438C39.1434 123.315 39.6695 123.429 40.0724 123.741C40.4752 124.059 40.7123 124.542 40.7123 125.054V137.202C40.7123 137.918 40.2572 138.553 39.5795 138.781C34.4606 140.51 29.9246 143.335 26.0854 147.175C22.251 151.009 19.4262 155.55 17.6914 160.669C17.4639 161.346 16.8288 161.801 16.1131 161.801H3.96521C3.51967 161.801 3.09307 161.626 2.78499 161.318L2.78974 161.313ZM37.3802 127.244C30.0242 129.453 23.3032 133.467 17.8383 138.932C12.3734 144.397 8.36366 151.118 6.15021 158.474H14.9376C16.8572 153.327 19.8101 148.743 23.7298 144.824C27.6448 140.909 32.2329 137.956 37.3802 136.031V127.244Z" fill="white"/>
<path d="M77.9314 144.819C62.9918 129.879 38.6771 129.874 23.7375 144.819C8.79315 159.763 8.79789 184.073 23.7375 199.013C38.6771 213.952 62.9871 213.957 77.9314 199.013C92.8757 184.068 92.871 159.758 77.9314 144.819Z" fill="white"/>
<path d="M64.6503 185.593L37.1226 185.776C35.963 185.783 35.0292 186.73 35.0369 187.889L35.0434 188.87C35.0511 190.03 35.9974 190.964 37.157 190.956L64.6846 190.774C65.8442 190.766 66.7781 189.82 66.7704 188.66L66.7639 187.679C66.7562 186.519 65.8099 185.586 64.6503 185.593Z" fill="#110A1D"/>
<path d="M40.8732 168.977C40.5746 168.977 40.2713 168.911 39.9964 168.778L37.8492 167.74C36.9155 167.285 36.4889 166.181 36.8776 165.218L37.8635 162.763C38.1668 162.014 38.8825 161.526 39.6883 161.521C40.0343 161.521 40.3755 161.607 40.6788 161.782L43.2383 163.242C43.717 163.512 44.063 163.981 44.1862 164.522C44.3095 165.062 44.2005 165.631 43.8876 166.086L42.4847 168.119C42.1197 168.65 41.513 168.972 40.8684 168.972L40.8732 168.977Z" fill="#110A1D"/>
<path d="M60.6919 168.844C60.0473 168.844 59.4359 168.536 59.0663 168.01L57.6775 166.053C57.3552 165.602 57.2415 165.034 57.3552 164.493C57.469 163.953 57.8102 163.479 58.2889 163.199L60.9289 161.65C61.2275 161.474 61.5688 161.379 61.9148 161.375C62.7206 161.37 63.4458 161.849 63.7586 162.593L64.7539 164.977C65.152 165.934 64.7397 167.048 63.8155 167.513L61.5688 168.636C61.2987 168.769 60.9953 168.844 60.6967 168.844H60.6919Z" fill="#110A1D"/>
<path d="M38.7106 183.936C37.502 183.945 36.4166 183.187 36.0043 182.049L31.4115 169.408C31.1176 169.551 30.8048 169.66 30.4872 169.74C30.1128 169.835 29.7336 169.882 29.3497 169.882C29.1269 169.882 28.9089 169.873 28.6956 169.844C26.302 169.541 24.4868 167.489 24.4725 165.071C24.4536 162.398 26.6148 160.209 29.288 160.19C31.9612 160.171 34.151 162.332 34.1652 165.005C34.1652 165.621 34.0609 166.214 33.8429 166.768C33.7244 167.072 33.5775 167.361 33.4069 167.636L42.1422 171.863L48.8252 162.18C48.5456 162.062 48.2754 161.915 48.0194 161.739C47.536 161.412 47.1141 161.005 46.7729 160.526C46.1946 159.711 45.8818 158.749 45.8771 157.753C45.8581 155.08 48.0194 152.89 50.6926 152.871C50.8111 152.871 50.9344 152.871 51.0529 152.881C53.4464 153.042 55.3802 154.962 55.5556 157.355C55.6362 158.488 55.3376 159.573 54.693 160.498C54.3517 160.981 53.9346 161.393 53.4559 161.72C53.2047 161.896 52.9345 162.043 52.6549 162.161L59.4564 171.745L68.0495 167.446C67.8883 167.138 67.7604 166.816 67.6656 166.479C67.5518 166.072 67.4902 165.645 67.4902 165.214C67.4902 165.019 67.4997 164.825 67.5186 164.635C67.7935 162.199 69.8506 160.351 72.301 160.337C74.9742 160.318 77.164 162.479 77.1782 165.152C77.1971 167.702 75.2159 169.844 72.6707 170.02L72.3674 170.029C71.8744 170.029 71.391 169.963 70.9218 169.821C70.6184 169.726 70.3245 169.607 70.0496 169.456L65.7365 181.85C65.3431 182.992 64.2624 183.76 63.0538 183.77L38.7106 183.931V183.936Z" fill="#110A1D"/>
<path d="M100.411 51.0401V170.635C100.411 171.624 99.6098 172.415 98.6314 172.415C97.653 172.415 96.8516 171.614 96.8516 170.635V51.0401C96.8516 50.0513 97.653 49.2603 98.6314 49.2603C99.6098 49.2603 100.411 50.0617 100.411 51.0401Z" fill="white"/>
<path d="M4.86833 50.7799V170.375C4.86833 171.364 4.06691 172.155 3.08849 172.155C2.11008 172.155 1.30859 171.354 1.30859 170.375V50.7799C1.30859 49.7911 2.11008 49 3.08849 49C4.06691 49 4.86833 49.8015 4.86833 50.7799Z" fill="white"/>
<path d="M100.4 50.1496C100.4 51.1384 99.5988 51.9295 98.6204 51.9295C97.642 51.9295 96.8405 51.128 96.8405 50.1496C96.8405 24.7941 76.2106 4.16424 50.8551 4.16424C25.4997 4.16424 4.86979 24.7941 4.86979 50.1496C4.86979 51.1384 4.06831 51.9295 3.08989 51.9295C2.11148 51.9295 1.31006 51.128 1.31006 50.1496C1.31006 22.8269 23.5429 0.594086 50.8656 0.594086C78.1882 0.594086 100.421 22.8269 100.421 50.1496H100.4Z" fill="white"/>
</svg>
