<svg width="100" height="100" viewBox="0 0 100 100" fill="none" xmlns="http://www.w3.org/2000/svg">
<path d="M49.5451 99.1234C22.2225 99.1234 0 76.8906 0 49.5783C0 22.2661 22.2329 0.0332031 49.5451 0.0332031C76.8574 0.0332031 99.0902 22.2661 99.0902 49.5783C99.0902 76.8906 76.8574 99.1234 49.5451 99.1234ZM49.5451 3.33272C24.044 3.33272 3.29958 24.0772 3.29958 49.5783C3.29958 75.0795 24.044 95.8239 49.5451 95.8239C75.0463 95.8239 95.7907 75.0795 95.7907 49.5783C95.7907 24.0772 75.0463 3.33272 49.5451 3.33272Z" fill="white"/>
<path d="M81.8732 14.2241L66.5349 29.5624L69.5525 32.58L84.8908 17.2417L81.8732 14.2241Z" fill="white"/>
<path d="M29.0763 67.023L13.738 82.3612L16.7556 85.3788L32.0939 70.0405L29.0763 67.023Z" fill="white"/>
<path d="M70.0173 67.0201L66.9998 70.0377L82.338 85.376L85.3556 82.3584L70.0173 67.0201Z" fill="white"/>
<path d="M16.7673 13.7591L13.7498 16.7767L29.0807 32.1076L32.0983 29.09L16.7673 13.7591Z" fill="white"/>
<path d="M61.641 50.9106C62.6402 49.9113 62.6402 48.298 61.641 47.3092L59.5176 45.1962C58.5183 44.197 56.905 44.197 55.9162 45.1962L54.7712 46.3412L53.4494 45.0193C52.4501 44.02 50.8368 44.02 49.848 45.0193L48.703 46.1746L47.3811 44.8423C46.3819 43.8431 44.7685 43.8431 43.7797 44.8423L36.7539 51.8681C36.7018 51.9202 36.7018 52.0035 36.7539 52.0659C37.6907 53.0027 39.2208 53.0027 40.1679 52.0659L44.6957 47.5382C45.1849 47.0489 45.9759 47.0489 46.4652 47.5382L46.7982 47.8712C46.8607 47.9337 46.8607 48.0274 46.7982 48.0898L43.0199 51.8681C42.9679 51.9202 42.9679 52.0035 43.0199 52.0659C43.9567 53.0027 45.4867 53.0027 46.4339 52.0659L50.7743 47.7255C51.2635 47.2363 52.0546 47.2363 52.5438 47.7255L52.8768 48.0586C52.9289 48.1106 52.9289 48.1939 52.8768 48.2563L49.2338 51.8994C49.1818 51.9514 49.1818 52.0347 49.2338 52.0971C50.1706 53.0339 51.7007 53.0339 52.6479 52.0971L56.8425 47.9025C57.3317 47.4133 58.1228 47.4133 58.612 47.9025L59.3302 48.6207C59.6112 48.9017 59.6112 49.3701 59.3302 49.6511L59.2157 49.7656C58.9347 50.0466 58.4663 50.0466 58.1853 49.7656L57.2589 48.8392C57.2069 48.7872 57.1236 48.7872 57.0611 48.8392L55.4582 50.4422C55.4062 50.4942 55.4062 50.5775 55.4582 50.6399L56.905 52.0867C57.9043 53.0859 59.5176 53.0859 60.5064 52.0867L61.6514 50.9418L61.641 50.9106Z" fill="white"/>
<path d="M49.5462 11.5764C28.5624 11.5764 11.5547 28.5841 11.5547 49.5679C11.5547 70.5517 28.5624 87.5594 49.5462 87.5594C70.53 87.5594 87.5377 70.5517 87.5377 49.5679C87.5377 28.5841 70.53 11.5764 49.5462 11.5764ZM51.0971 23.3069C57.1965 23.6608 62.7339 26.0964 67.0223 29.9059L61.5369 35.3913C58.6745 32.9661 55.0628 31.3944 51.0971 31.0613V23.3069ZM48.0057 23.3069V31.0613C44.04 31.384 40.4282 32.9661 37.5659 35.3913L32.0805 29.9059C36.3688 26.0964 41.9062 23.6608 48.0057 23.3069ZM29.8947 32.0918L35.38 37.5771C32.9548 40.4395 31.3831 44.0513 31.05 48.017H23.2956C23.6495 41.9175 26.0851 36.3801 29.8947 32.0918ZM23.2956 51.1084H31.05C31.3727 55.0741 32.9548 58.6858 35.38 61.5482L29.8947 67.0336C26.0851 62.7452 23.6495 57.2078 23.2956 51.1084ZM48.0057 75.8185C41.9062 75.4646 36.3688 73.0289 32.0805 69.2193L37.5659 63.734C40.4282 66.1592 44.04 67.7309 48.0057 68.064V75.8185ZM33.5793 49.5575C33.5793 40.7413 40.7301 33.5906 49.5462 33.5906C58.3623 33.5906 65.513 40.7413 65.513 49.5575C65.513 58.3736 58.3623 65.5243 49.5462 65.5243C40.7301 65.5243 33.5793 58.3736 33.5793 49.5575ZM51.0971 75.8185V68.064C55.0628 67.7413 58.6745 66.1592 61.5369 63.734L67.0223 69.2193C62.7339 73.0289 57.1965 75.4646 51.0971 75.8185ZM69.2081 67.0336L63.7228 61.5482C66.148 58.6858 67.7197 55.0741 68.0527 51.1084H75.8072C75.4533 57.2078 73.0176 62.7452 69.2081 67.0336ZM68.0527 48.017C67.7301 44.0513 66.148 40.4395 63.7228 37.5771L69.2081 32.0918C73.0176 36.3801 75.4533 41.9175 75.8072 48.017H68.0527Z" fill="white"/>
</svg>
