<svg width="100" height="100" viewBox="0 0 100 100" fill="none" xmlns="http://www.w3.org/2000/svg">
<path d="M50.3967 99.6208C23.074 99.6208 0.851562 77.3879 0.851562 50.0756C0.851562 22.7633 23.0844 0.530518 50.3967 0.530518C77.709 0.530518 99.9418 22.7633 99.9418 50.0756C99.9418 77.3879 77.709 99.6208 50.3967 99.6208ZM50.3967 3.83004C24.8955 3.83004 4.15108 24.5744 4.15108 50.0756C4.15108 75.5768 24.8955 96.3212 50.3967 96.3212C75.8979 96.3212 96.6423 75.5768 96.6423 50.0756C96.6423 24.5744 75.8979 3.83004 50.3967 3.83004Z" fill="#478BF9"/>
<path d="M82.7174 14.7291L67.3792 30.0674L70.3968 33.085L85.7351 17.7467L82.7174 14.7291Z" fill="#478BF9"/>
<path d="M29.9242 67.5207L14.5859 82.8589L17.6035 85.8765L32.9418 70.5383L29.9242 67.5207Z" fill="#478BF9"/>
<path d="M70.8616 67.5356L67.844 70.5533L83.1822 85.8915L86.1999 82.8739L70.8616 67.5356Z" fill="#478BF9"/>
<path d="M17.5999 14.2672L14.5823 17.2848L29.9132 32.6157L32.9308 29.5981L17.5999 14.2672Z" fill="#478BF9"/>
<path d="M62.4808 51.4079C63.48 50.4087 63.48 48.7954 62.4808 47.8065L60.3574 45.6936C59.3582 44.6944 57.7449 44.6944 56.7561 45.6936L55.6111 46.8385L54.2892 45.5166C53.29 44.5174 51.6766 44.5174 50.6878 45.5166L49.5429 46.672L48.221 45.3397C47.2217 44.3405 45.6084 44.3405 44.6195 45.3397L37.5937 52.3655C37.5417 52.4176 37.5417 52.5008 37.5937 52.5633C38.5305 53.5001 40.0606 53.5001 41.0078 52.5633L45.5355 48.0356C46.0247 47.5464 46.8158 47.5464 47.305 48.0356L47.6381 48.3686C47.7005 48.431 47.7005 48.5247 47.6381 48.5872L43.8597 52.3655C43.8077 52.4176 43.8077 52.5008 43.8597 52.5633C44.7965 53.5001 46.3266 53.5001 47.2738 52.5633L51.6142 48.2229C52.1034 47.7337 52.8945 47.7337 53.3837 48.2229L53.7167 48.556C53.7688 48.608 53.7688 48.6913 53.7167 48.7538L50.0737 52.3968C50.0217 52.4488 50.0217 52.5321 50.0737 52.5945C51.0105 53.5313 52.5405 53.5313 53.4877 52.5945L57.6824 48.3998C58.1716 47.9106 58.9626 47.9106 59.4519 48.3998L60.1701 49.118C60.4511 49.3991 60.4511 49.8674 60.1701 50.1485L60.0556 50.263C59.7745 50.544 59.3062 50.544 59.0251 50.263L58.0987 49.3366C58.0467 49.2846 57.9634 49.2846 57.901 49.3366L56.2981 50.9395C56.246 50.9916 56.246 51.0749 56.2981 51.1373L57.7449 52.5841C58.7441 53.5834 60.3574 53.5834 61.3462 52.5841L62.4912 51.4391L62.4808 51.4079Z" fill="#478BF9"/>
<path d="M50.3978 12.0841C29.414 12.0841 12.4062 29.0918 12.4062 50.0756C12.4062 71.0594 29.414 88.0671 50.3978 88.0671C71.3816 88.0671 88.3893 71.0594 88.3893 50.0756C88.3893 29.0918 71.3816 12.0841 50.3978 12.0841ZM51.9486 23.8146C58.0481 24.1685 63.5855 26.6041 67.8738 30.4137L62.3885 35.899C59.5261 33.4738 55.9143 31.9022 51.9486 31.5691V23.8146ZM48.8572 23.8146V31.5691C44.8916 31.8917 41.2798 33.4738 38.4174 35.899L32.932 30.4137C37.2204 26.6041 42.7578 24.1685 48.8572 23.8146ZM30.7463 32.5995L36.2316 38.0849C33.8064 40.9473 32.2347 44.559 31.9016 48.5247H24.1472C24.5011 42.4253 26.9367 36.8879 30.7463 32.5995ZM24.1472 51.6161H31.9016C32.2243 55.5818 33.8064 59.1936 36.2316 62.0559L30.7463 67.5413C26.9367 63.253 24.5011 57.7156 24.1472 51.6161ZM48.8572 76.3262C42.7578 75.9723 37.2204 73.5367 32.932 69.7271L38.4174 64.2417C41.2798 66.6669 44.8916 68.2387 48.8572 68.5718V76.3262ZM34.4309 50.0652C34.4309 41.2491 41.5817 34.0984 50.3978 34.0984C59.2139 34.0984 66.3646 41.2491 66.3646 50.0652C66.3646 58.8813 59.2139 66.0321 50.3978 66.0321C41.5817 66.0321 34.4309 58.8813 34.4309 50.0652ZM51.9486 76.3262V68.5718C55.9143 68.2491 59.5261 66.6669 62.3885 64.2417L67.8738 69.7271C63.5855 73.5367 58.0481 75.9723 51.9486 76.3262ZM70.0596 67.5413L64.5743 62.0559C66.9995 59.1936 68.5712 55.5818 68.9043 51.6161H76.6587C76.3048 57.7156 73.8692 63.253 70.0596 67.5413ZM68.9043 48.5247C68.5816 44.559 66.9995 40.9473 64.5743 38.0849L70.0596 32.5995C73.8692 36.8879 76.3048 42.4253 76.6587 48.5247H68.9043Z" fill="#478BF9"/>
</svg>
