<svg width="100" height="221" viewBox="0 0 100 221" fill="none" xmlns="http://www.w3.org/2000/svg">
<path d="M99.111 171.065C99.111 198.388 76.8782 220.621 49.5555 220.621C22.2328 220.621 0 198.388 0 171.065C0 143.743 22.2328 121.51 49.5555 121.51C76.8782 121.51 99.111 143.743 99.111 171.065ZM3.57015 171.065C3.57015 196.421 24.2001 217.051 49.5555 217.051C74.9109 217.051 95.5408 196.421 95.5408 171.065C95.5408 145.71 74.9109 125.08 49.5555 125.08C24.2001 125.08 3.57015 145.71 3.57015 171.065Z" fill="#478BF9"/>
<path d="M99.1136 49.9295C99.1136 50.9183 98.3122 51.7094 97.3338 51.7094C96.3553 51.7094 95.5539 50.9079 95.5539 49.9295C95.5539 24.574 74.924 3.94412 49.5685 3.94412C24.2131 3.94412 3.58317 24.574 3.58317 49.9295C3.58317 50.9183 2.78169 51.7094 1.80327 51.7094C0.824862 51.7094 0.0234375 50.9079 0.0234375 49.9295C0.0234375 22.6068 22.2563 0.373962 49.5789 0.373962C76.9016 0.373962 99.1344 22.6068 99.1344 49.9295H99.1136Z" fill="#478BF9"/>
<path d="M40.012 162.312C40.012 164.133 41.2506 165.715 43.0201 166.152L46.382 166.995V158.346H43.9881C41.8023 158.346 40.0224 160.126 40.0224 162.312H40.012Z" fill="#478BF9"/>
<path d="M52.7293 183.785H55.1234C57.3092 183.785 59.0891 182.005 59.0891 179.819C59.0891 177.997 57.8504 176.415 56.081 175.978L52.719 175.135V183.785H52.7293Z" fill="#478BF9"/>
<path d="M49.5564 130.742C27.3235 130.742 9.2229 148.832 9.2229 171.076C9.2229 193.319 27.3131 211.409 49.5564 211.409C71.7996 211.409 89.8898 193.319 89.8898 171.076C89.8898 148.832 71.7996 130.742 49.5564 130.742ZM65.4608 164.706H59.1011V161.52C59.1011 159.772 57.6751 158.335 55.916 158.335H52.731V168.578L57.6335 169.806C62.2341 170.961 65.4504 175.073 65.4504 179.819C65.4504 185.512 60.8185 190.144 55.125 190.144H52.731V198.201H46.3713V190.144H43.1863C37.9195 190.144 33.6416 185.866 33.6416 180.6V177.415H40.0012V180.6C40.0012 182.348 41.4272 183.785 43.1863 183.785H46.3713V173.542L41.4688 172.314C36.8682 171.159 33.652 167.047 33.652 162.301C33.652 156.608 38.2838 151.976 43.9773 151.976H46.3713V143.92H52.731V151.976H55.916C61.1828 151.976 65.4608 156.254 65.4608 161.52V164.706Z" fill="#478BF9"/>
<path d="M99.173 49.1697V168.765C99.173 169.754 98.3716 170.545 97.3932 170.545C96.4148 170.545 95.6133 169.743 95.6133 168.765V49.1697C95.6133 48.1808 96.4148 47.3898 97.3932 47.3898C98.3716 47.3898 99.173 48.1913 99.173 49.1697Z" fill="#478BF9"/>
<path d="M3.63786 48.9095V168.505C3.63786 169.494 2.83637 170.285 1.85796 170.285C0.879549 170.285 0.078125 169.483 0.078125 168.505V48.9095C0.078125 47.9207 0.879549 47.1296 1.85796 47.1296C2.83637 47.1296 3.63786 47.9311 3.63786 48.9095Z" fill="#478BF9"/>
</svg>
