<svg width="100" height="100" viewBox="0 0 100 100" fill="none" xmlns="http://www.w3.org/2000/svg">
<path d="M49.7326 100C37.0341 100 24.3459 95.1705 14.6763 85.5009C-4.65252 66.1721 -4.65252 34.7276 14.6763 15.3987C24.0441 6.03095 36.4928 0.878662 49.7326 0.878662C62.9724 0.878662 75.4212 6.03095 84.7889 15.3987C104.118 34.7276 104.118 66.1721 84.7889 85.5009C75.1297 95.1601 62.4311 100 49.7326 100ZM17.2785 82.8988C35.1709 100.791 64.2839 100.791 82.1763 82.8988C100.069 65.0063 100.069 35.8933 82.1763 18.0009C73.506 9.33049 61.9836 4.56336 49.7222 4.56336C37.4609 4.56336 25.9384 9.3409 17.2681 18.0009C-0.624391 35.8933 -0.624391 65.0063 17.2681 82.8988H17.2785Z" fill="#9DADF2"/>
<path d="M49.077 68.9929C49.2539 69.4196 49.6703 69.6693 50.1074 69.6693C50.2532 69.6693 50.3989 69.6382 50.5446 69.5861C54.0419 68.1185 57.2269 65.8493 59.7458 63.0182C60.1518 62.5602 60.1101 61.8525 59.6521 61.4466C59.1942 61.0407 58.4864 61.0823 58.0804 61.5403C55.7801 64.132 52.8761 66.2033 49.6806 67.5356C49.1186 67.775 48.8479 68.4308 49.0873 68.9929H49.077Z" fill="#9DADF2"/>
<path d="M68.6226 33.312L50.1369 25.9219C49.8663 25.8178 49.5748 25.8178 49.3042 25.9219L30.8185 33.312C30.3917 33.4786 30.1211 33.8845 30.1211 34.3425V47.5822C30.1419 59.802 37.8651 70.8456 49.3355 75.0507C49.4604 75.0923 49.5853 75.1132 49.7206 75.1132C49.8559 75.1132 49.9808 75.0923 50.1057 75.0507C61.576 70.8352 69.2992 59.802 69.32 47.5822V34.3425C69.32 33.8845 69.0494 33.4786 68.6226 33.312ZM67.0926 47.5822C67.0718 58.6987 60.0979 68.8263 49.7309 72.8128C39.3639 68.8263 32.3797 58.6987 32.3589 47.5822V35.1023L49.7309 28.1598L67.0926 35.1023V47.5822Z" fill="#9DADF2"/>
<path d="M42.0084 35.0502C41.7378 34.9357 41.4359 34.9357 41.1549 35.0502L36.752 36.8093C36.3253 36.9758 36.0547 37.3818 36.0547 37.8397V42.534C36.0547 43.1482 36.5543 43.6477 37.1684 43.6477C37.7825 43.6477 38.2821 43.1482 38.2821 42.534V38.5995L41.9772 37.1216C42.2582 37.0071 42.4664 36.7989 42.5913 36.5178C42.7058 36.2472 42.7058 35.9454 42.5913 35.6644C42.4768 35.3833 42.2686 35.1751 41.998 35.0502H42.0084Z" fill="#9DADF2"/>
<path d="M77.8877 22.2997C70.3727 14.7743 60.3699 10.642 49.7323 10.642C39.0947 10.642 29.1024 14.7847 21.577 22.2997C6.05768 37.819 6.05768 63.0808 21.577 78.6105C29.3418 86.3753 39.5318 90.2473 49.7323 90.2473C59.9328 90.2473 70.1229 86.3649 77.8877 78.6105C93.407 63.0912 93.407 37.8294 77.8877 22.2997ZM72.3815 47.5823C72.4127 61.7068 63.3884 74.0619 49.9301 78.3398C49.8052 78.3815 49.6698 78.3815 49.5345 78.3398C36.0762 74.0619 27.0519 61.7068 27.0832 47.5823V31.9589C27.0832 31.6987 27.2392 31.4593 27.4891 31.3552L49.4929 22.5599C49.5658 22.5287 49.649 22.5183 49.7323 22.5183C49.8156 22.5183 49.8989 22.5287 49.9717 22.5599L71.9756 31.3657C72.2254 31.4593 72.3815 31.6987 72.3815 31.9693V47.5927V47.5823Z" fill="#9DADF2"/>
</svg>
