<svg width="100" height="100" viewBox="0 0 100 100" fill="none" xmlns="http://www.w3.org/2000/svg">
<path d="M50.1272 99.3894C22.8045 99.3894 0.582031 77.1565 0.582031 49.8442C0.582031 22.5319 22.8149 0.299118 50.1272 0.299118C77.4394 0.299118 99.6723 22.5319 99.6723 49.8442C99.6723 77.1565 77.4394 99.3894 50.1272 99.3894ZM50.1272 3.59864C24.626 3.59864 3.88161 24.343 3.88161 49.8442C3.88161 75.3454 24.626 96.0898 50.1272 96.0898C75.6283 96.0898 96.3727 75.3454 96.3727 49.8442C96.3727 24.343 75.6283 3.59864 50.1272 3.59864Z" fill="white"/>
<path d="M66.1977 18.8995C65.9479 18.8995 65.698 18.8475 65.4691 18.733C60.6707 16.3598 55.508 15.1524 50.1267 15.1524C44.7455 15.1524 39.5828 16.3598 34.7844 18.733C34.1495 19.0452 33.3897 18.9203 32.89 18.4207L24.3758 9.9064C24.0115 9.5421 23.8449 9.04248 23.9074 8.53245C23.9698 8.02243 24.2613 7.57488 24.6985 7.31466C32.3696 2.71405 41.1649 0.288834 50.1372 0.288834C59.1094 0.288834 67.9047 2.72445 75.5759 7.31466C76.013 7.57488 76.3044 8.02243 76.3669 8.53245C76.4293 9.04248 76.2524 9.5421 75.8985 9.9064L67.3842 18.4207C67.0615 18.7329 66.6453 18.8995 66.2081 18.8995H66.1977ZM50.1267 11.8528C55.6121 11.8528 60.8997 12.9978 65.8542 15.2565L72.0161 9.09456C65.3129 5.48277 57.7875 3.58835 50.1267 3.58835C42.466 3.58835 34.9405 5.48277 28.2373 9.09456L34.3993 15.2565C39.3538 12.9978 44.6414 11.8528 50.1267 11.8528Z" fill="white"/>
<path d="M50.1249 99.3894C41.1527 99.3894 32.3574 96.9538 24.6862 92.3636C24.2491 92.1034 23.9576 91.6558 23.8952 91.1457C23.8327 90.6357 24.0097 90.1362 24.3636 89.7719L32.8778 81.2575C33.3774 80.7579 34.1477 80.633 34.7722 80.9453C39.5706 83.3185 44.7333 84.5259 50.1145 84.5259C55.4958 84.5259 60.6585 83.3185 65.4569 80.9453C66.0918 80.633 66.8516 80.7579 67.3512 81.2575L75.8655 89.7719C76.2298 90.1362 76.3963 90.6357 76.3339 91.1457C76.2714 91.6558 75.98 92.1034 75.5428 92.3636C67.8717 96.9642 59.0764 99.3894 50.1041 99.3894H50.1249ZM28.2356 90.5837C34.9387 94.1955 42.4642 96.0898 50.1249 96.0898C57.7857 96.0898 65.3111 94.1955 72.0143 90.5837L65.8524 84.4218C60.8979 86.6805 55.6103 87.8254 50.1249 87.8254C44.6396 87.8254 39.352 86.6805 34.3975 84.4218L28.2356 90.5837Z" fill="white"/>
<path d="M91.2328 76.0741C90.7957 76.0741 90.3793 75.9076 90.0671 75.5953L81.5528 67.081C81.0532 66.5814 80.9283 65.8112 81.2406 65.1867C83.6137 60.3883 84.8211 55.2256 84.8211 49.8443C84.8211 44.4631 83.6137 39.3004 81.2406 34.502C80.9283 33.8671 81.0532 33.0969 81.5528 32.6076L90.0671 24.0934C90.4314 23.7291 90.931 23.5625 91.441 23.625C91.951 23.6874 92.3986 23.9789 92.6588 24.4161C97.2594 32.0872 99.6846 40.8825 99.6846 49.8548C99.6846 58.827 97.2594 67.6223 92.6588 75.2935C92.3986 75.7306 91.951 76.0221 91.441 76.0845C91.3681 76.0845 91.3057 76.0845 91.2328 76.0845V76.0741ZM84.7066 65.5614L90.8685 71.7233C94.4803 65.0202 96.3747 57.4947 96.3747 49.8339C96.3747 42.1732 94.4803 34.6478 90.8685 27.9446L84.7066 34.1065C86.9653 39.061 88.1102 44.3486 88.1102 49.8339C88.1102 55.3193 86.9653 60.6069 84.7066 65.5614Z" fill="white"/>
<path d="M9.02348 76.0741C8.95062 76.0741 8.88817 76.0741 8.82572 76.0636C8.31569 76.0012 7.86808 75.7097 7.60786 75.2726C3.00724 67.6014 0.582031 58.8061 0.582031 49.8339C0.582031 40.8616 3.00724 32.0664 7.60786 24.3952C7.86808 23.9581 8.31569 23.6666 8.82572 23.6042C9.33574 23.5417 9.83536 23.7186 10.1997 24.0725L18.7139 32.5868C19.2135 33.0864 19.3384 33.8566 19.0262 34.4811C16.653 39.2795 15.4456 44.4423 15.4456 49.8235C15.4456 55.2048 16.653 60.3675 19.0262 65.1658C19.3384 65.8008 19.2135 66.571 18.7139 67.0602L10.1997 75.5745C9.88741 75.8867 9.471 76.0636 9.03384 76.0636L9.02348 76.0741ZM9.38776 27.9445C5.77596 34.6477 3.88161 42.1731 3.88161 49.8339C3.88161 57.4946 5.77596 65.0201 9.38776 71.7233L15.5497 65.5614C13.291 60.6069 12.1461 55.3192 12.1461 49.8339C12.1461 44.3485 13.291 39.0609 15.5497 34.1064L9.38776 27.9445Z" fill="white"/>
<path d="M50.1282 11.8528C29.1861 11.8528 12.1367 28.8918 12.1367 49.8444C12.1367 70.7969 29.1757 87.8359 50.1282 87.8359C71.0808 87.8359 88.1198 70.7969 88.1198 49.8444C88.1198 28.8918 71.0808 11.8528 50.1282 11.8528ZM71.5075 37.3644C73.3082 40.4454 74.4011 43.8074 74.755 47.3775C74.7654 47.5232 74.703 47.6586 74.5781 47.7314C71.8615 49.3968 69.4258 51.4369 67.3233 53.8205C67.2296 53.935 67.0735 53.9766 66.9381 53.9246L62.2439 52.3945C62.1086 52.3529 62.0149 52.2384 61.994 52.0927C61.4632 48.2102 60.2559 44.4944 58.4031 41.0387C58.3407 40.9138 58.351 40.7681 58.4343 40.6536L61.3383 36.6566C61.4112 36.563 61.5257 36.5005 61.6402 36.5005C61.6714 36.5005 61.6922 36.5005 61.7235 36.5005C64.8252 37.1875 68.0102 37.4165 71.1745 37.1562C71.3202 37.1458 71.4555 37.2187 71.5284 37.3436L71.5075 37.3644ZM59.4336 52.7484C59.444 52.8525 59.4127 52.9565 59.3503 53.0294C56.8834 55.871 53.74 58.1505 50.274 59.6077C50.1803 59.6493 50.0866 59.6493 49.9929 59.6077C46.5268 58.14 43.3834 55.8605 40.9166 53.0294C40.8541 52.9565 40.8229 52.8525 40.8333 52.7484C41.3121 48.9805 42.4883 45.3791 44.3098 42.0483C44.3618 41.9546 44.4451 41.8922 44.5492 41.8714C46.3811 41.4863 48.2547 41.2885 50.1387 41.2885C52.0226 41.2885 53.8962 41.4863 55.7281 41.8714C55.8322 41.8922 55.9154 41.9546 55.9675 42.0483C57.789 45.3791 58.9548 48.9805 59.444 52.7484H59.4336ZM58.8715 26.9142C58.8715 26.9142 58.9964 26.81 59.1213 26.81C59.1629 26.81 59.2149 26.8101 59.267 26.8413C63.0974 28.361 66.5218 30.859 69.1864 34.0545C69.3218 34.2106 69.2697 34.3771 69.2385 34.4396C69.2177 34.4916 69.124 34.6582 68.9054 34.6582C66.5426 34.6894 64.1903 34.4188 61.9108 33.8776C61.8171 33.8567 61.7338 33.7942 61.6818 33.711C60.464 31.7021 59.4856 29.5371 58.7778 27.2889C58.7154 27.0911 58.8298 26.9558 58.8819 26.9142H58.8715ZM44.8719 25.6651C48.3171 24.9261 51.9497 24.9261 55.395 25.6651C55.5303 25.6963 55.6448 25.8004 55.676 25.9358C56.415 29.0271 57.612 31.9832 59.2254 34.7206C59.2982 34.8456 59.2878 35.0017 59.2045 35.1266L56.3214 39.1026C56.2381 39.2171 56.0924 39.2796 55.957 39.2484C52.1475 38.4781 48.1193 38.4781 44.3098 39.2484C44.1745 39.2796 44.0288 39.2171 43.9455 39.1026L41.0623 35.1266C40.979 35.0121 40.9686 34.8456 41.0415 34.7206C42.6548 31.9832 43.8518 29.0271 44.5908 25.9358C44.6221 25.8004 44.7366 25.6963 44.8719 25.6651ZM31.0804 34.0545C33.7451 30.8486 37.1695 28.3506 40.9998 26.8413C41.0519 26.8205 41.1039 26.81 41.1456 26.81C41.2809 26.81 41.3642 26.8829 41.3954 26.9142C41.4474 26.9662 41.5619 27.0911 41.4994 27.2889C40.7917 29.5475 39.8133 31.7021 38.5955 33.711C38.5434 33.7942 38.4602 33.8567 38.3665 33.8776C36.087 34.4188 33.7346 34.6894 31.3719 34.6582C31.1533 34.6582 31.0596 34.4916 31.0388 34.4396C31.0075 34.3771 30.9555 34.2106 31.0908 34.0545H31.0804ZM28.7593 37.3644C28.8217 37.2499 28.9466 37.1771 29.0819 37.1771C29.0819 37.1771 29.1028 37.1771 29.1132 37.1771C32.2878 37.4269 35.4729 37.2083 38.5643 36.5213C38.71 36.4901 38.8557 36.5422 38.939 36.6671L41.8429 40.6639C41.9262 40.7784 41.9366 40.9346 41.8742 41.0491C40.0215 44.5048 38.814 48.2207 38.2832 52.1031C38.2624 52.2384 38.1687 52.3529 38.0334 52.4049L33.3391 53.9349C33.2038 53.9766 33.0477 53.935 32.954 53.8309C30.8514 51.4473 28.4158 49.4072 25.6991 47.7419C25.5846 47.669 25.5118 47.5337 25.5222 47.3879C25.8761 43.8178 26.969 40.4454 28.7697 37.3748L28.7593 37.3644ZM29.8938 63.0113C29.8314 63.2091 29.6545 63.2507 29.5816 63.2611C29.5087 63.2611 29.3422 63.2611 29.2277 63.0946C27.0106 59.6077 25.6991 55.5691 25.4389 51.4265C25.4285 51.2183 25.5638 51.1142 25.6263 51.083C25.6887 51.0518 25.8553 50.9789 26.0218 51.1038C27.9474 52.4674 29.6961 54.0703 31.2261 55.8502C31.2886 55.923 31.3198 56.0167 31.3094 56.1208C31.1221 58.4627 30.6433 60.7839 29.8834 63.0217L29.8938 63.0113ZM40.1776 72.5144C36.9301 71.0884 34.0677 68.9963 31.6737 66.3108C31.58 66.2067 31.5488 66.0506 31.6009 65.9257C32.8187 62.9905 33.5889 59.8991 33.8907 56.7349C33.9011 56.5892 34.0053 56.4643 34.1406 56.4226L38.7828 54.9134C38.7828 54.9134 38.8556 54.8926 38.8973 54.8926C39.0014 54.8926 39.0951 54.9342 39.1679 55.0175C41.7701 57.9319 45.028 60.305 48.5981 61.8767C48.7334 61.9392 48.8167 62.0641 48.8167 62.2098V67.0915C48.8167 67.2372 48.7334 67.3725 48.5981 67.4246C45.6837 68.684 42.9775 70.3806 40.5523 72.452C40.4482 72.5456 40.2921 72.5664 40.1672 72.504L40.1776 72.5144ZM56.5503 73.5448C56.5399 73.6177 56.4879 73.7843 56.2797 73.8363C52.262 74.8564 48.0153 74.8564 43.9975 73.8363C43.7998 73.7843 43.7373 73.6177 43.7269 73.5448C43.7165 73.472 43.6957 73.3055 43.8726 73.1702C45.767 71.765 47.8279 70.5888 50.0033 69.6832C50.097 69.6416 50.1907 69.6416 50.2843 69.6832C52.4493 70.5888 54.5103 71.765 56.415 73.1702C56.5816 73.2951 56.5712 73.472 56.5608 73.5448H56.5503ZM68.614 66.3213C66.22 69.0067 63.3576 71.0884 60.1101 72.5144C59.9748 72.5769 59.8291 72.5456 59.725 72.4624C57.2998 70.3911 54.6039 68.6944 51.6791 67.435C51.5438 67.3725 51.4605 67.2476 51.4605 67.1019V62.2202C51.4605 62.0745 51.5438 61.9392 51.6791 61.8872C55.2493 60.3155 58.5176 57.9423 61.1093 55.0279C61.1822 54.9446 61.2759 54.903 61.38 54.903C61.4216 54.903 61.4528 54.903 61.4944 54.9238L66.1367 56.433C66.272 56.4747 66.3761 56.5996 66.3865 56.7453C66.6884 59.9095 67.4586 62.9905 68.6764 65.9361C68.7285 66.061 68.7076 66.2172 68.6036 66.3213H68.614ZM71.0496 63.105C70.9351 63.2819 70.7582 63.2819 70.6957 63.2715C70.6228 63.2715 70.4563 63.2195 70.3834 63.0217C69.634 60.7839 69.1552 58.4627 68.9574 56.1208C68.9574 56.0271 68.9783 55.923 69.0407 55.8502C70.5708 54.0703 72.3194 52.4778 74.245 51.1038C74.3179 51.0518 74.3908 51.031 74.4532 51.031C74.5365 51.031 74.5989 51.0622 74.6406 51.083C74.703 51.1142 74.8487 51.2183 74.8279 51.4265C74.5677 55.5691 73.2562 59.6077 71.0392 63.0946L71.0496 63.105Z" fill="white"/>
</svg>
