<svg width="100" height="100" viewBox="0 0 100 100" fill="none" xmlns="http://www.w3.org/2000/svg">
<path d="M49.8771 99.9326C22.5544 99.9326 0.332031 77.6998 0.332031 50.3875C0.332031 23.0752 22.5649 0.842407 49.8771 0.842407C77.1894 0.842407 99.4223 23.0752 99.4223 50.3875C99.4223 77.6998 77.1894 99.9326 49.8771 99.9326ZM49.8771 4.14193C24.376 4.14193 3.63155 24.8863 3.63155 50.3875C3.63155 75.8886 24.376 96.6331 49.8771 96.6331C75.3783 96.6331 96.1227 75.8886 96.1227 50.3875C96.1227 24.8863 75.3783 4.14193 49.8771 4.14193Z" fill="#9DADF2"/>
<path d="M65.9516 19.4531C65.7018 19.4531 65.452 19.401 65.223 19.2865C60.4246 16.9133 55.2619 15.7059 49.8806 15.7059C44.4994 15.7059 39.3367 16.9133 34.5383 19.2865C33.9034 19.5987 33.1436 19.4738 32.6439 18.9742L24.1297 10.46C23.7654 10.0957 23.5988 9.59605 23.6613 9.08603C23.7237 8.57601 24.0152 8.12845 24.4524 7.86824C32.1235 3.26762 40.9188 0.842407 49.8911 0.842407C58.8633 0.842407 67.6586 3.27803 75.3298 7.86824C75.7669 8.12845 76.0584 8.57601 76.1208 9.08603C76.1833 9.59605 76.0063 10.0957 75.6524 10.46L67.1382 18.9742C66.8155 19.2865 66.3992 19.4531 65.962 19.4531H65.9516ZM49.8806 12.4064C55.366 12.4064 60.6536 13.5514 65.6081 15.81L71.77 9.64807C65.0669 6.03628 57.5414 4.14193 49.8806 4.14193C42.2199 4.14193 34.6945 6.03628 27.9913 9.64807L34.1532 15.81C39.1077 13.5514 44.3953 12.4064 49.8806 12.4064Z" fill="#9DADF2"/>
<path d="M49.8789 99.9326C40.9066 99.9326 32.1113 97.4969 24.4401 92.9067C24.003 92.6465 23.7115 92.199 23.6491 91.6889C23.5866 91.1789 23.7636 90.6793 24.1175 90.315L32.6317 81.8007C33.1314 81.3011 33.9016 81.1762 34.5261 81.4885C39.3245 83.8617 44.4872 85.0691 49.8684 85.0691C55.2497 85.0691 60.4124 83.8617 65.2108 81.4885C65.8458 81.1762 66.6055 81.3011 67.1051 81.8007L75.6195 90.315C75.9838 90.6793 76.1503 91.1789 76.0878 91.6889C76.0253 92.199 75.7339 92.6465 75.2967 92.9067C67.6256 97.5073 58.8303 99.9326 49.8581 99.9326H49.8789ZM27.9895 91.1269C34.6927 94.7387 42.2181 96.633 49.8789 96.633C57.5396 96.633 65.0651 94.7387 71.7683 91.1269L65.6063 84.965C60.6518 87.2237 55.3642 88.3686 49.8789 88.3686C44.3935 88.3686 39.1059 87.2237 34.1514 84.965L27.9895 91.1269Z" fill="#9DADF2"/>
<path d="M90.9828 76.6277C90.5457 76.6277 90.1293 76.4611 89.8171 76.1488L81.3028 67.6346C80.8032 67.135 80.6783 66.3647 80.9906 65.7402C83.3637 60.9418 84.5711 55.7792 84.5711 50.3979C84.5711 45.0166 83.3637 39.854 80.9906 35.0556C80.6783 34.4206 80.8032 33.6504 81.3028 33.1612L89.8171 24.6469C90.1814 24.2826 90.681 24.1161 91.191 24.1785C91.701 24.241 92.1486 24.5324 92.4088 24.9696C97.0094 32.6408 99.4346 41.4361 99.4346 50.4083C99.4346 59.3806 97.0094 68.1758 92.4088 75.847C92.1486 76.2842 91.701 76.5756 91.191 76.6381C91.1181 76.6381 91.0557 76.6381 90.9828 76.6381V76.6277ZM84.4567 66.1149L90.6185 72.2769C94.2303 65.5737 96.1247 58.0482 96.1247 50.3875C96.1247 42.7267 94.2303 35.2013 90.6185 28.4981L84.4567 34.66C86.7153 39.6145 87.8602 44.9021 87.8602 50.3875C87.8602 55.8728 86.7153 61.1604 84.4567 66.1149Z" fill="#9DADF2"/>
<path d="M8.77342 76.6277C8.70056 76.6277 8.6381 76.6277 8.57565 76.6173C8.06563 76.5548 7.61808 76.2634 7.35786 75.8262C2.75724 68.155 0.332031 59.3597 0.332031 50.3875C0.332031 41.4152 2.75724 32.6199 7.35786 24.9488C7.61808 24.5116 8.06563 24.2202 8.57565 24.1577C9.08568 24.0953 9.5853 24.2722 9.9496 24.6261L18.4639 33.1404C18.9635 33.64 19.0884 34.4102 18.7761 35.0348C16.4029 39.8331 15.1955 44.9958 15.1955 50.3771C15.1955 55.7583 16.4029 60.921 18.7761 65.7194C19.0884 66.3543 18.9635 67.1246 18.4639 67.6138L9.9496 76.128C9.63734 76.4403 9.221 76.6173 8.78384 76.6173L8.77342 76.6277ZM9.1377 28.4982C5.5259 35.2013 3.63155 42.7267 3.63155 50.3875C3.63155 58.0482 5.5259 65.5737 9.1377 72.2769L15.2997 66.1149C13.041 61.1604 11.896 55.8728 11.896 50.3875C11.896 44.9021 13.041 39.6146 15.2997 34.6601L9.1377 28.4982Z" fill="#9DADF2"/>
<path d="M49.8782 12.3959C28.9361 12.3959 11.8867 29.4349 11.8867 50.3875C11.8867 71.34 28.9257 88.379 49.8782 88.379C70.8308 88.379 87.8698 71.34 87.8698 50.3875C87.8698 29.4349 70.8308 12.3959 49.8782 12.3959ZM71.2576 37.9075C73.0583 40.9885 74.1512 44.3505 74.5051 47.9206C74.5155 48.0663 74.453 48.2017 74.3281 48.2745C71.6115 49.9399 69.1759 51.98 67.0733 54.3636C66.9796 54.4781 66.8235 54.5197 66.6882 54.4676L61.9939 52.9376C61.8586 52.8959 61.7649 52.7815 61.7441 52.6358C61.2133 48.7533 60.0059 45.0374 58.1531 41.5817C58.0907 41.4568 58.1011 41.3111 58.1844 41.1966L61.0884 37.1997C61.1612 37.1061 61.2757 37.0436 61.3902 37.0436C61.4214 37.0436 61.4422 37.0436 61.4735 37.0436C64.5752 37.7305 67.7603 37.9595 70.9245 37.6993C71.0703 37.6889 71.2055 37.7618 71.2784 37.8867L71.2576 37.9075ZM59.1836 53.2914C59.194 53.3955 59.1627 53.4996 59.1003 53.5725C56.6334 56.4141 53.49 58.6936 50.024 60.1508C49.9303 60.1924 49.8366 60.1924 49.7429 60.1508C46.2768 58.6831 43.1335 56.4036 40.6666 53.5725C40.6042 53.4996 40.5729 53.3955 40.5833 53.2914C41.0621 49.5235 42.2383 45.9222 44.0598 42.5914C44.1119 42.4977 44.1951 42.4353 44.2992 42.4145C46.1311 42.0293 48.0047 41.8316 49.8887 41.8316C51.7726 41.8316 53.6462 42.0293 55.4781 42.4145C55.5822 42.4353 55.6654 42.4977 55.7175 42.5914C57.539 45.9222 58.7048 49.5235 59.194 53.2914H59.1836ZM58.6215 27.4573C58.6215 27.4573 58.7464 27.3531 58.8713 27.3531C58.9129 27.3531 58.965 27.3532 59.017 27.3844C62.8474 28.9041 66.2718 31.4021 68.9364 34.5976C69.0718 34.7537 69.0197 34.9202 68.9885 34.9827C68.9677 35.0347 68.874 35.2013 68.6555 35.2013C66.2927 35.2325 63.9403 34.9619 61.6608 34.4206C61.5671 34.3998 61.4839 34.3373 61.4319 34.2541C60.2141 32.2452 59.2356 30.0802 58.5278 27.832C58.4654 27.6342 58.5799 27.4989 58.6319 27.4573H58.6215ZM44.6219 26.2082C48.0671 25.4692 51.6997 25.4692 55.145 26.2082C55.2803 26.2394 55.3948 26.3435 55.4261 26.4788C56.1651 29.5702 57.362 32.5263 58.9754 35.2637C59.0482 35.3886 59.0379 35.5447 58.9546 35.6696L56.0714 39.6457C55.9881 39.7602 55.8424 39.8227 55.7071 39.7915C51.8975 39.0212 47.8694 39.0212 44.0598 39.7915C43.9245 39.8227 43.7788 39.7602 43.6955 39.6457L40.8124 35.6696C40.7291 35.5551 40.7187 35.3886 40.7915 35.2637C42.4049 32.5263 43.6018 29.5702 44.3408 26.4788C44.3721 26.3435 44.4866 26.2394 44.6219 26.2082ZM30.8304 34.5976C33.4951 31.3917 36.9195 28.8936 40.7499 27.3844C40.802 27.3636 40.8539 27.3531 40.8956 27.3531C41.0309 27.3531 41.1142 27.426 41.1454 27.4573C41.1974 27.5093 41.312 27.6342 41.2495 27.832C40.5417 30.0906 39.5633 32.2452 38.3455 34.2541C38.2934 34.3373 38.2102 34.3998 38.1165 34.4206C35.837 34.9619 33.4847 35.2325 31.1219 35.2013C30.9033 35.2013 30.8097 35.0347 30.7888 34.9827C30.7576 34.9202 30.7056 34.7537 30.8409 34.5976H30.8304ZM28.5093 37.9075C28.5718 37.793 28.6967 37.7202 28.832 37.7202C28.832 37.7202 28.8528 37.7202 28.8632 37.7202C32.0378 37.97 35.2229 37.7514 38.3143 37.0644C38.46 37.0332 38.6057 37.0852 38.689 37.2101L41.593 41.207C41.6763 41.3215 41.6866 41.4776 41.6242 41.5921C39.7715 45.0478 38.564 48.7637 38.0332 52.6461C38.0124 52.7814 37.9187 52.896 37.7834 52.948L33.0891 54.478C32.9538 54.5197 32.7977 54.4781 32.704 54.374C30.6014 51.9904 28.1659 49.9503 25.4492 48.2849C25.3347 48.212 25.2618 48.0768 25.2722 47.931C25.6261 44.3609 26.7191 40.9885 28.5198 37.9179L28.5093 37.9075ZM29.6438 63.5544C29.5814 63.7522 29.4045 63.7938 29.3316 63.8042C29.2587 63.8042 29.0922 63.8042 28.9777 63.6376C26.7606 60.1507 25.4492 56.1122 25.189 51.9696C25.1786 51.7614 25.3139 51.6573 25.3763 51.6261C25.4388 51.5949 25.6053 51.522 25.7719 51.6469C27.6975 53.0105 29.4461 54.6134 30.9762 56.3933C31.0386 56.4661 31.0698 56.5598 31.0594 56.6639C30.8721 59.0058 30.3933 61.327 29.6334 63.5648L29.6438 63.5544ZM39.9276 73.0575C36.6801 71.6315 33.8177 69.5393 31.4237 66.8539C31.3301 66.7498 31.2988 66.5937 31.3509 66.4688C32.5687 63.5336 33.3389 60.4422 33.6408 57.278C33.6512 57.1322 33.7553 57.0074 33.8906 56.9657L38.5329 55.4565C38.5329 55.4565 38.6057 55.4356 38.6473 55.4356C38.7514 55.4356 38.8451 55.4773 38.918 55.5606C41.5201 58.475 44.778 60.8481 48.3482 62.4198C48.4835 62.4823 48.5667 62.6072 48.5667 62.7529V67.6346C48.5667 67.7803 48.4835 67.9156 48.3482 67.9677C45.4338 69.2271 42.7275 70.9237 40.3023 72.995C40.1982 73.0887 40.0421 73.1095 39.9172 73.0471L39.9276 73.0575ZM56.3003 74.0879C56.2899 74.1608 56.2379 74.3273 56.0298 74.3793C52.012 75.3994 47.7653 75.3994 43.7475 74.3793C43.5498 74.3273 43.4874 74.1608 43.477 74.0879C43.4666 74.0151 43.4457 73.8486 43.6226 73.7132C45.517 72.3081 47.5779 71.1319 49.7533 70.2263C49.847 70.1847 49.9407 70.1847 50.0344 70.2263C52.1994 71.1319 54.2603 72.3081 56.1651 73.7132C56.3316 73.8381 56.3212 74.0151 56.3108 74.0879H56.3003ZM68.364 66.8643C65.97 69.5498 63.1076 71.6315 59.8601 73.0575C59.7248 73.1199 59.5791 73.0887 59.475 73.0054C57.0498 70.9341 54.3539 69.2375 51.4291 67.9781C51.2938 67.9156 51.2106 67.7907 51.2106 67.645V62.7633C51.2106 62.6176 51.2938 62.4823 51.4291 62.4303C54.9993 60.8585 58.2676 58.4854 60.8593 55.5709C60.9322 55.4877 61.0259 55.446 61.13 55.446C61.1716 55.446 61.2028 55.4461 61.2444 55.4669L65.8867 56.9761C66.022 57.0178 66.1261 57.1427 66.1365 57.2884C66.4384 60.4526 67.2086 63.5336 68.4264 66.4792C68.4785 66.6041 68.4576 66.7603 68.3536 66.8643H68.364ZM70.7996 63.648C70.6851 63.825 70.5082 63.825 70.4457 63.8146C70.3728 63.8146 70.2063 63.7626 70.1335 63.5648C69.384 61.327 68.9053 59.0058 68.7075 56.6639C68.7075 56.5702 68.7283 56.4661 68.7907 56.3933C70.3208 54.6134 72.0694 53.0209 73.995 51.6469C74.0679 51.5949 74.1408 51.5741 74.2032 51.5741C74.2865 51.5741 74.3489 51.6053 74.3906 51.6261C74.453 51.6573 74.5988 51.7614 74.578 51.9696C74.3178 56.1122 73.0063 60.1507 70.7892 63.6376L70.7996 63.648Z" fill="#9DADF2"/>
</svg>
