<svg width="100" height="100" viewBox="0 0 100 100" fill="none" xmlns="http://www.w3.org/2000/svg">
<path d="M49.6154 99.4071C36.9169 99.4071 24.2288 94.5775 14.5591 84.9079C-4.76971 65.5791 -4.76971 34.1346 14.5591 14.8058C23.9269 5.43799 36.3756 0.285706 49.6154 0.285706C62.8552 0.285706 75.3039 5.43799 84.6717 14.8058C104.001 34.1346 104.001 65.5791 84.6717 84.9079C75.0125 94.5671 62.3139 99.4071 49.6154 99.4071ZM17.1613 82.3057C35.0537 100.198 64.1667 100.198 82.0591 82.3057C99.9516 64.4133 99.9516 35.3004 82.0591 17.4079C73.3887 8.73753 61.8664 3.97034 49.605 3.97034C37.3436 3.97034 25.8213 8.74794 17.1509 17.4079C-0.741578 35.3004 -0.741578 64.4133 17.1509 82.3057H17.1613Z" fill="#7DDACF"/>
<path d="M51.45 39.4222L42.2695 52.2873H47.7757V61.4677L56.9561 48.613H51.45V39.4222Z" fill="#7DDACF"/>
<path d="M49.6057 32.2714C39.551 32.2714 31.3906 40.4318 31.3906 50.4865C31.3906 60.5413 39.551 68.6809 49.6057 68.6809C59.6605 68.6809 67.8209 60.5205 67.8209 50.4865C67.8209 40.4526 59.6605 32.2714 49.6057 32.2714ZM49.6057 66.4326C40.7792 66.4326 33.6181 59.2714 33.6181 50.4449C33.6181 41.6184 40.7792 34.4573 49.6057 34.4573C58.4323 34.4573 65.5935 41.6184 65.5935 50.4449C65.5935 59.2714 58.4323 66.4326 49.6057 66.4326Z" fill="#7DDACF"/>
<path d="M77.7627 21.7067C70.2477 14.1813 60.2449 10.049 49.6073 10.049C38.9697 10.049 28.9774 14.1917 21.452 21.7067C5.93268 37.226 5.93268 62.4877 21.452 78.0174C29.2168 85.7822 39.4068 89.6647 49.6073 89.6647C59.8078 89.6647 69.9979 85.7822 77.7627 78.0174C93.282 62.4981 93.282 37.2364 77.7627 21.7067ZM49.6073 75.1967C35.9928 75.1967 24.9076 64.1115 24.9076 50.497C24.9076 44.4808 27.0622 38.9642 30.6428 34.655L27.6243 31.6365C26.7604 30.7726 26.7604 29.3675 27.6243 28.4931C28.4882 27.6188 29.8934 27.6292 30.7677 28.4931L33.7862 31.5116C37.5333 28.3786 42.2484 26.3177 47.3903 25.8806V23.8405H45.3502C43.5495 23.8405 42.061 22.352 42.061 20.5514V18.8339C42.061 17.0124 43.5495 15.5448 45.3502 15.5448H53.8853C55.686 15.5448 57.1744 17.0124 57.1744 18.8339V20.5514C57.1744 22.352 55.686 23.8405 53.8853 23.8405H51.8452V25.8806C56.9975 26.3281 61.7022 28.389 65.4493 31.5116L68.4677 28.4931C69.3317 27.6292 70.7368 27.6292 71.6112 28.4931C72.4751 29.3571 72.4751 30.7622 71.6112 31.6365L68.5926 34.655C72.1732 38.9642 74.3278 44.4704 74.3278 50.497C74.3278 64.1115 63.2426 75.1967 49.6281 75.1967H49.6073Z" fill="#7DDACF"/>
</svg>
