<svg width="100" height="222" viewBox="0 0 100 222" fill="none" xmlns="http://www.w3.org/2000/svg">
<path d="M0.546875 50.4612C0.546875 23.1385 22.7798 0.905701 50.1024 0.905701C77.4251 0.905701 99.6579 23.1385 99.6579 50.4612C99.6579 77.7839 77.4251 100.017 50.1024 100.017C22.7798 100.017 0.546875 77.7839 0.546875 50.4612ZM96.0878 50.4612C96.0878 25.1058 75.4579 4.47585 50.1024 4.47585C24.747 4.47585 4.11709 25.1058 4.11709 50.4612C4.11709 75.8166 24.747 96.4465 50.1024 96.4465C75.4579 96.4465 96.0878 75.8166 96.0878 50.4612Z" fill="#478BF9"/>
<path d="M0.544212 171.607C0.544212 170.619 1.3457 169.827 2.32411 169.827C3.30252 169.827 4.10401 170.629 4.10401 171.607C4.10401 196.963 24.7339 217.593 50.0894 217.593C75.4448 217.593 96.0747 196.963 96.0747 171.607C96.0747 170.619 96.8762 169.827 97.8546 169.827C98.833 169.827 99.6344 170.629 99.6344 171.607C99.6344 198.93 77.4016 221.163 50.0789 221.163C22.7563 221.163 0.523438 198.93 0.523438 171.607H0.544212Z" fill="#478BF9"/>
<path d="M98.1434 49.2643H76.4414V53.5422H98.1434V49.2643Z" fill="#478BF9"/>
<path d="M23.4208 49.2643H1.71875V53.5422H23.4208V49.2643Z" fill="#478BF9"/>
<path d="M52.4107 78.2419H48.1328V99.9439H52.4107V78.2419Z" fill="#478BF9"/>
<path d="M52.4107 2.86255H48.1328V24.5645H52.4107V2.86255Z" fill="#478BF9"/>
<path d="M75.7859 24.2523C60.9432 9.40956 36.868 9.40956 22.0148 24.2523C7.17213 39.095 7.17213 63.1702 22.0148 78.0233C36.8576 92.866 60.9328 92.866 75.7859 78.0233C90.6286 63.1806 90.6286 39.1054 75.7859 24.2523ZM56.2489 27.4686C60.5789 28.8113 64.4613 31.3197 67.4798 34.7338L68.0626 35.3895L67.2092 35.5873C64.9505 36.1181 62.5357 36.5553 60.0376 36.878L59.5901 36.9404L59.4652 36.5033C59.0488 35.0773 58.5596 33.7033 57.9975 32.4334C57.3001 30.8409 56.5195 29.4462 55.666 28.27L54.7292 26.9897L56.2489 27.4582V27.4686ZM38.8768 49.9512L38.8977 49.4099C39.0018 46.1208 39.3661 42.9774 39.9906 40.0838L40.0843 39.6258L40.5526 39.6675C46.0276 40.1463 51.8773 40.1255 57.321 39.6154L57.7893 39.5738L57.8934 40.0318C58.5284 42.9566 58.8927 46.1104 58.9863 49.4099V49.9512H38.8873H38.8768ZM58.9863 52.366V52.9073C58.8718 56.2068 58.5075 59.3606 57.8726 62.2854L57.7685 62.7434L57.3001 62.7018C51.8564 62.1918 46.0068 62.1814 40.5319 62.6497L40.0634 62.6914L39.9697 62.2334C39.3452 59.3398 38.9809 56.2068 38.8768 52.9073L38.856 52.366H58.9655H58.9863ZM48.9316 26.563C51.9605 26.563 55.0415 30.4038 56.9671 36.5969L57.1648 37.2215L56.5091 37.2735C53.9486 37.4921 51.3048 37.6066 48.6506 37.6066C46.1837 37.6066 43.7273 37.5129 41.3333 37.3151L40.6775 37.2631L40.8753 36.6282C42.8009 30.4142 45.8923 26.5526 48.9316 26.5526V26.563ZM30.2793 34.8483C33.3186 31.3822 37.2323 28.8321 41.6143 27.479L43.1444 27.0106L42.1972 28.3012C41.3437 29.467 40.5527 30.8722 39.8657 32.4543C39.314 33.7033 38.8144 35.0981 38.3773 36.5969L38.2524 37.0237L37.8048 36.9717C35.2859 36.6594 32.8503 36.243 30.5604 35.7122L29.6964 35.5144L30.2793 34.8483ZM24.2007 49.3892C24.4921 45.3298 25.7932 41.3745 27.9686 37.9292L28.1768 37.6066L28.5515 37.7002C31.2161 38.3768 34.0889 38.9181 37.1074 39.3032L37.6695 39.3761L37.5549 39.9381C36.9304 42.9566 36.5766 46.1521 36.4829 49.4412V49.9512H24.1694L24.2111 49.3892H24.2007ZM28.1768 64.7106L27.9686 64.388C25.7932 60.9531 24.4921 56.9874 24.2007 52.9281L24.159 52.366H36.462V52.876C36.5661 56.1651 36.9305 59.371 37.5446 62.3791L37.6591 62.9412L37.097 63.014C34.0889 63.3991 31.2057 63.9404 28.5411 64.617L28.1664 64.7106H28.1768ZM41.6143 74.8486C37.2323 73.4955 33.3186 70.9454 30.2793 67.4794L29.6964 66.8132L30.5604 66.6154C32.8503 66.095 35.2859 65.6682 37.8048 65.356L38.2524 65.3039L38.3773 65.7307C38.8144 67.2296 39.314 68.6243 39.8657 69.8733C40.5631 71.4659 41.3437 72.8606 42.1972 74.0368L43.1444 75.3275L41.6143 74.8591V74.8486ZM48.9316 75.7542C45.8923 75.7542 42.8009 71.8926 40.8753 65.6786L40.6775 65.0437L41.3333 64.9917C46.2982 64.5962 51.5858 64.6065 56.5091 65.0333L57.1648 65.0853L56.9671 65.7099C55.0311 71.8926 51.9501 75.7438 48.9316 75.7438V75.7542ZM67.4798 67.5834C64.4613 70.9975 60.5684 73.5059 56.2489 74.8486L54.7292 75.317L55.666 74.0368C56.5195 72.871 57.3001 71.4659 57.9975 69.8733C58.5492 68.5931 59.0488 67.2295 59.4652 65.8035L59.5901 65.3664L60.0376 65.4288C62.5357 65.7515 64.9505 66.1887 67.2092 66.7195L68.0626 66.9277L67.4798 67.5834ZM73.6521 52.9281C73.3607 57.0291 72.0388 61.0364 69.8113 64.5129L69.6032 64.8355L69.2285 64.7419C66.5951 64.0445 63.7327 63.4928 60.735 63.0869L60.1729 63.014L60.2874 62.4624C60.9119 59.4439 61.2762 56.2276 61.3699 52.8864V52.3764H73.6833L73.6417 52.9385L73.6521 52.9281ZM61.3907 49.9512V49.4412C61.2866 46.1 60.9224 42.8733 60.2978 39.8652L60.1834 39.3136L60.7454 39.2407C63.7431 38.8348 66.595 38.2831 69.2388 37.5857L69.6136 37.4921L69.8217 37.8148C72.0491 41.2912 73.3815 45.2882 73.6625 49.3996L73.7042 49.9616H61.4011L61.3907 49.9512Z" fill="#478BF9"/>
<path d="M0.484619 172.357V52.7615C0.484619 51.7727 1.28611 50.9816 2.26452 50.9816C3.24293 50.9816 4.04442 51.7831 4.04442 52.7615V172.357C4.04442 173.345 3.24293 174.137 2.26452 174.137C1.28611 174.137 0.484619 173.335 0.484619 172.357Z" fill="#478BF9"/>
<path d="M96.0352 172.627V53.0322C96.0352 52.0433 96.8366 51.2523 97.815 51.2523C98.7934 51.2523 99.5949 52.0537 99.5949 53.0322V172.627C99.5949 173.616 98.7934 174.407 97.815 174.407C96.8366 174.407 96.0352 173.606 96.0352 172.627Z" fill="#478BF9"/>
</svg>
